<?xml version="1.0" encoding="UTF-8" standalone="no"?>
<!DOCTYPE svg PUBLIC "-//W3C//DTD SVG 1.1//EN"
 "http://www.w3.org/Graphics/SVG/1.1/DTD/svg11.dtd">
<!-- Generated by graphviz version 2.38.0 (20140413.2041)
 -->
<!-- Title: docker_compose Pages: 1 -->
<svg width="579pt" height="176pt"
 viewBox="0.00 0.00 578.50 176.19" xmlns="http://www.w3.org/2000/svg" xmlns:xlink="http://www.w3.org/1999/xlink">
<g id="graph0" class="graph" transform="scale(1 1) rotate(0) translate(4 172.191)">
<title>docker_compose</title>
<polygon fill="white" stroke="none" points="-4,4 -4,-172.191 574.5,-172.191 574.5,4 -4,4"/>
<!-- . -->
<g id="node1" class="node"><title>.</title>
<polygon fill="none" stroke="black" points="278.5,-138.096 275.5,-142.096 254.5,-142.096 251.5,-138.096 224.5,-138.096 224.5,-102.096 278.5,-102.096 278.5,-138.096"/>
<text text-anchor="middle" x="251.5" y="-116.396" font-family="Times New Roman,serif" font-size="14.00">.</text>
</g>
<!-- web -->
<g id="node2" class="node"><title>web</title>
<polygon fill="none" stroke="black" points="176.5,-36 122.5,-36 122.5,-32 118.5,-32 118.5,-28 122.5,-28 122.5,-8 118.5,-8 118.5,-4 122.5,-4 122.5,-0 176.5,-0 176.5,-36"/>
<polyline fill="none" stroke="black" points="122.5,-32 126.5,-32 126.5,-28 122.5,-28 "/>
<polyline fill="none" stroke="black" points="122.5,-8 126.5,-8 126.5,-4 122.5,-4 "/>
<text text-anchor="middle" x="149.5" y="-14.3" font-family="Times New Roman,serif" font-size="14.00">web</text>
</g>
<!-- .&#45;&gt;web -->
<g id="edge1" class="edge"><title>.&#45;&gt;web</title>
<path fill="none" stroke="black" d="M239.767,-101.727C233.14,-92.466 224.415,-81.131 215.5,-72 205.174,-61.4235 192.773,-50.9761 181.522,-42.1891"/>
<polygon fill="black" stroke="black" points="183.646,-39.4076 173.579,-36.1062 179.39,-44.9651 183.646,-39.4076"/>
</g>
<!-- back -->
<g id="node6" class="node"><title>back</title>
<polygon fill="none" stroke="black" points="268.5,-36 214.5,-36 214.5,-32 210.5,-32 210.5,-28 214.5,-28 214.5,-8 210.5,-8 210.5,-4 214.5,-4 214.5,-0 268.5,-0 268.5,-36"/>
<polyline fill="none" stroke="black" points="214.5,-32 218.5,-32 218.5,-28 214.5,-28 "/>
<polyline fill="none" stroke="black" points="214.5,-8 218.5,-8 218.5,-4 214.5,-4 "/>
<text text-anchor="middle" x="241.5" y="-14.3" font-family="Times New Roman,serif" font-size="14.00">back</text>
</g>
<!-- .&#45;&gt;back -->
<g id="edge5" class="edge"><title>.&#45;&gt;back</title>
<path fill="none" stroke="black" d="M249.758,-101.66C248.238,-86.4462 246.007,-64.1101 244.246,-46.4907"/>
<polygon fill="black" stroke="black" points="247.699,-45.838 243.222,-36.2355 240.733,-46.534 247.699,-45.838"/>
</g>
<!-- 5000:5000 -->
<g id="node3" class="node"><title>5000:5000</title>
<ellipse fill="none" stroke="black" cx="344.5" cy="-120.096" rx="48.1917" ry="48.1917"/>
<text text-anchor="middle" x="344.5" y="-116.396" font-family="Times New Roman,serif" font-size="14.00">5000:5000</text>
</g>
<!-- 5000:5000&#45;&gt;web -->
<g id="edge2" class="edge"><title>5000:5000&#45;&gt;web</title>
<path fill="none" stroke="black" d="M309.313,-87.0819C302.37,-81.6306 294.927,-76.3376 287.5,-72 269.901,-61.7214 221.023,-43.797 186.451,-31.6699"/>
<polygon fill="black" stroke="black" points="187.27,-28.2488 176.675,-28.261 184.965,-34.8585 187.27,-28.2488"/>
</g>
<!-- 5000:5000&#45;&gt;back -->
<g id="edge6" class="edge"><title>5000:5000&#45;&gt;back</title>
<path fill="none" stroke="black" d="M310.488,-86.0432C296.087,-72.0482 279.616,-56.0412 266.38,-43.1784"/>
<polygon fill="black" stroke="black" points="268.612,-40.4666 259.001,-36.0073 263.733,-45.4866 268.612,-40.4666"/>
</g>
<!-- .:/code -->
<g id="node4" class="node"><title>.:/code</title>
<polygon fill="none" stroke="black" points="55,-138.096 52,-142.096 31,-142.096 28,-138.096 0,-138.096 0,-102.096 55,-102.096 55,-138.096"/>
<text text-anchor="middle" x="27.5" y="-116.396" font-family="Times New Roman,serif" font-size="14.00">.:/code</text>
</g>
<!-- .:/code&#45;&gt;web -->
<g id="edge3" class="edge"><title>.:/code&#45;&gt;web</title>
<path fill="none" stroke="black" d="M38.4815,-101.725C45.0112,-92.2426 53.8824,-80.6978 63.5,-72 78.2882,-58.6261 96.9024,-46.6781 113.028,-37.5272"/>
<polygon fill="black" stroke="black" points="115.123,-40.3688 122.187,-32.4728 111.741,-34.24 115.123,-40.3688"/>
</g>
<!-- .:/code&#45;&gt;back -->
<g id="edge7" class="edge"><title>.:/code&#45;&gt;back</title>
<path fill="none" stroke="black" d="M36.7786,-102.07C43.086,-91.9797 52.3075,-79.699 63.5,-72 110.078,-39.9603 131.341,-52.2111 185.5,-36 191.696,-34.1454 198.273,-32.162 204.659,-30.2285"/>
<polygon fill="black" stroke="black" points="205.9,-33.5095 214.454,-27.257 203.868,-26.8109 205.9,-33.5095"/>
</g>
<!-- logvolume01:/var/log -->
<g id="node5" class="node"><title>logvolume01:/var/log</title>
<polygon fill="none" stroke="black" points="206,-138.096 203,-142.096 182,-142.096 179,-138.096 73,-138.096 73,-102.096 206,-102.096 206,-138.096"/>
<text text-anchor="middle" x="139.5" y="-116.396" font-family="Times New Roman,serif" font-size="14.00">logvolume01:/var/log</text>
</g>
<!-- logvolume01:/var/log&#45;&gt;web -->
<g id="edge4" class="edge"><title>logvolume01:/var/log&#45;&gt;web</title>
<path fill="none" stroke="black" d="M141.242,-101.66C142.762,-86.4462 144.993,-64.1101 146.754,-46.4907"/>
<polygon fill="black" stroke="black" points="150.267,-46.534 147.778,-36.2355 143.301,-45.838 150.267,-46.534"/>
</g>
<!-- logvolume01:/var/log&#45;&gt;back -->
<g id="edge8" class="edge"><title>logvolume01:/var/log&#45;&gt;back</title>
<path fill="none" stroke="black" d="M157.267,-101.66C173.648,-85.585 198.132,-61.5587 216.487,-43.5462"/>
<polygon fill="black" stroke="black" points="219.251,-45.7378 223.937,-36.2355 214.348,-40.7416 219.251,-45.7378"/>
</g>
<!-- logvolume01 -->
<g id="node7" class="node"><title>logvolume01</title>
<polygon fill="none" stroke="black" points="498.5,-138.096 495.5,-142.096 474.5,-142.096 471.5,-138.096 410.5,-138.096 410.5,-102.096 498.5,-102.096 498.5,-138.096"/>
<text text-anchor="middle" x="454.5" y="-116.396" font-family="Times New Roman,serif" font-size="14.00">logvolume01</text>
</g>
<!-- redis -->
<g id="node8" class="node"><title>redis</title>
<polygon fill="none" stroke="black" points="570.5,-138.096 516.5,-138.096 516.5,-134.096 512.5,-134.096 512.5,-130.096 516.5,-130.096 516.5,-110.096 512.5,-110.096 512.5,-106.096 516.5,-106.096 516.5,-102.096 570.5,-102.096 570.5,-138.096"/>
<polyline fill="none" stroke="black" points="516.5,-134.096 520.5,-134.096 520.5,-130.096 516.5,-130.096 "/>
<polyline fill="none" stroke="black" points="516.5,-110.096 520.5,-110.096 520.5,-106.096 516.5,-106.096 "/>
<text text-anchor="middle" x="543.5" y="-116.396" font-family="Times New Roman,serif" font-size="14.00">redis</text>
</g>
</g>
</svg>
