<?xml version="1.0" encoding="UTF-8" standalone="no"?>
<!DOCTYPE svg PUBLIC "-//W3C//DTD SVG 1.1//EN"
 "http://www.w3.org/Graphics/SVG/1.1/DTD/svg11.dtd">
<!-- Generated by graphviz version 2.38.0 (20140413.2041)
 -->
<!-- Title: docker_compose Pages: 1 -->
<svg width="507pt" height="248pt"
 viewBox="0.00 0.00 506.50 248.19" xmlns="http://www.w3.org/2000/svg" xmlns:xlink="http://www.w3.org/1999/xlink">
<g id="graph0" class="graph" transform="scale(1 1) rotate(0) translate(4 244.191)">
<title>docker_compose</title>
<polygon fill="white" stroke="none" points="-4,4 -4,-244.191 502.5,-244.191 502.5,4 -4,4"/>
<!-- . -->
<g id="node1" class="node"><title>.</title>
<polygon fill="none" stroke="black" points="278.5,-210.096 275.5,-214.096 254.5,-214.096 251.5,-210.096 224.5,-210.096 224.5,-174.096 278.5,-174.096 278.5,-210.096"/>
<text text-anchor="middle" x="251.5" y="-188.396" font-family="Times New Roman,serif" font-size="14.00">.</text>
</g>
<!-- web -->
<g id="node2" class="node"><title>web</title>
<polygon fill="none" stroke="black" points="186.5,-108 132.5,-108 132.5,-104 128.5,-104 128.5,-100 132.5,-100 132.5,-80 128.5,-80 128.5,-76 132.5,-76 132.5,-72 186.5,-72 186.5,-108"/>
<polyline fill="none" stroke="black" points="132.5,-104 136.5,-104 136.5,-100 132.5,-100 "/>
<polyline fill="none" stroke="black" points="132.5,-80 136.5,-80 136.5,-76 132.5,-76 "/>
<text text-anchor="middle" x="159.5" y="-86.3" font-family="Times New Roman,serif" font-size="14.00">web</text>
</g>
<!-- .&#45;&gt;web -->
<g id="edge1" class="edge"><title>.&#45;&gt;web</title>
<path fill="none" stroke="black" d="M239.465,-174.01C232.75,-164.832 224.037,-153.486 215.5,-144 206.615,-134.128 196.206,-123.947 186.788,-115.179"/>
<polygon fill="black" stroke="black" points="188.9,-112.367 179.165,-108.184 184.167,-117.524 188.9,-112.367"/>
</g>
<!-- back -->
<g id="node7" class="node"><title>back</title>
<polygon fill="none" stroke="black" points="258.5,-108 204.5,-108 204.5,-104 200.5,-104 200.5,-100 204.5,-100 204.5,-80 200.5,-80 200.5,-76 204.5,-76 204.5,-72 258.5,-72 258.5,-108"/>
<polyline fill="none" stroke="black" points="204.5,-104 208.5,-104 208.5,-100 204.5,-100 "/>
<polyline fill="none" stroke="black" points="204.5,-80 208.5,-80 208.5,-76 204.5,-76 "/>
<text text-anchor="middle" x="231.5" y="-86.3" font-family="Times New Roman,serif" font-size="14.00">back</text>
</g>
<!-- .&#45;&gt;back -->
<g id="edge6" class="edge"><title>.&#45;&gt;back</title>
<path fill="none" stroke="black" d="M248.016,-173.66C244.976,-158.446 240.513,-136.11 236.993,-118.491"/>
<polygon fill="black" stroke="black" points="240.335,-117.356 234.944,-108.236 233.471,-118.728 240.335,-117.356"/>
</g>
<!-- redis -->
<g id="node6" class="node"><title>redis</title>
<polygon fill="none" stroke="black" points="222.5,-36 168.5,-36 168.5,-32 164.5,-32 164.5,-28 168.5,-28 168.5,-8 164.5,-8 164.5,-4 168.5,-4 168.5,-0 222.5,-0 222.5,-36"/>
<polyline fill="none" stroke="black" points="168.5,-32 172.5,-32 172.5,-28 168.5,-28 "/>
<polyline fill="none" stroke="black" points="168.5,-8 172.5,-8 172.5,-4 168.5,-4 "/>
<text text-anchor="middle" x="195.5" y="-14.3" font-family="Times New Roman,serif" font-size="14.00">redis</text>
</g>
<!-- web&#45;&gt;redis -->
<g id="edge5" class="edge"><title>web&#45;&gt;redis</title>
<path fill="none" stroke="black" d="M168.399,-71.6966C172.497,-63.7284 177.449,-54.0995 181.993,-45.2641"/>
<polygon fill="black" stroke="black" points="185.242,-46.598 186.703,-36.1043 179.017,-43.3965 185.242,-46.598"/>
</g>
<!-- 5000:5000 -->
<g id="node3" class="node"><title>5000:5000</title>
<ellipse fill="none" stroke="black" cx="344.5" cy="-192.096" rx="48.1917" ry="48.1917"/>
<text text-anchor="middle" x="344.5" y="-188.396" font-family="Times New Roman,serif" font-size="14.00">5000:5000</text>
</g>
<!-- 5000:5000&#45;&gt;web -->
<g id="edge2" class="edge"><title>5000:5000&#45;&gt;web</title>
<path fill="none" stroke="black" d="M309.291,-159.12C302.35,-153.665 294.913,-148.361 287.5,-144 252.168,-123.215 237.763,-125.014 195.903,-107.952"/>
<polygon fill="black" stroke="black" points="197.111,-104.663 186.537,-104.009 194.396,-111.115 197.111,-104.663"/>
</g>
<!-- 5000:5000&#45;&gt;back -->
<g id="edge7" class="edge"><title>5000:5000&#45;&gt;back</title>
<path fill="none" stroke="black" d="M308.746,-159.425C292.448,-144.988 273.475,-128.182 258.412,-114.838"/>
<polygon fill="black" stroke="black" points="260.732,-112.218 250.925,-108.207 256.09,-117.458 260.732,-112.218"/>
</g>
<!-- .:/code -->
<g id="node4" class="node"><title>.:/code</title>
<polygon fill="none" stroke="black" points="55,-210.096 52,-214.096 31,-214.096 28,-210.096 0,-210.096 0,-174.096 55,-174.096 55,-210.096"/>
<text text-anchor="middle" x="27.5" y="-188.396" font-family="Times New Roman,serif" font-size="14.00">.:/code</text>
</g>
<!-- .:/code&#45;&gt;web -->
<g id="edge3" class="edge"><title>.:/code&#45;&gt;web</title>
<path fill="none" stroke="black" d="M38.0158,-173.998C44.5211,-164.374 53.5211,-152.6 63.5,-144 81.2656,-128.69 104.163,-115.842 123.139,-106.632"/>
<polygon fill="black" stroke="black" points="124.822,-109.708 132.378,-102.281 121.84,-103.375 124.822,-109.708"/>
</g>
<!-- .:/code&#45;&gt;back -->
<g id="edge8" class="edge"><title>.:/code&#45;&gt;back</title>
<path fill="none" stroke="black" d="M36.723,-173.989C43.0094,-163.867 52.2285,-151.583 63.5,-144 111.392,-111.781 135.9,-127.27 194.49,-107.917"/>
<polygon fill="black" stroke="black" points="195.925,-111.122 204.194,-104.499 193.6,-104.519 195.925,-111.122"/>
</g>
<!-- logvolume01:/var/log -->
<g id="node5" class="node"><title>logvolume01:/var/log</title>
<polygon fill="none" stroke="black" points="206,-210.096 203,-214.096 182,-214.096 179,-210.096 73,-210.096 73,-174.096 206,-174.096 206,-210.096"/>
<text text-anchor="middle" x="139.5" y="-188.396" font-family="Times New Roman,serif" font-size="14.00">logvolume01:/var/log</text>
</g>
<!-- logvolume01:/var/log&#45;&gt;web -->
<g id="edge4" class="edge"><title>logvolume01:/var/log&#45;&gt;web</title>
<path fill="none" stroke="black" d="M142.984,-173.66C146.024,-158.446 150.487,-136.11 154.007,-118.491"/>
<polygon fill="black" stroke="black" points="157.529,-118.728 156.056,-108.236 150.665,-117.356 157.529,-118.728"/>
</g>
<!-- logvolume01:/var/log&#45;&gt;back -->
<g id="edge9" class="edge"><title>logvolume01:/var/log&#45;&gt;back</title>
<path fill="none" stroke="black" d="M155.525,-173.66C170.168,-157.729 191.99,-133.987 208.494,-116.03"/>
<polygon fill="black" stroke="black" points="211.468,-117.967 215.658,-108.236 206.314,-113.23 211.468,-117.967"/>
</g>
<!-- back&#45;&gt;redis -->
<g id="edge10" class="edge"><title>back&#45;&gt;redis</title>
<path fill="none" stroke="black" d="M222.601,-71.6966C218.503,-63.7284 213.551,-54.0995 209.007,-45.2641"/>
<polygon fill="black" stroke="black" points="211.983,-43.3965 204.297,-36.1043 205.758,-46.598 211.983,-43.3965"/>
</g>
<!-- logvolume01 -->
<g id="node8" class="node"><title>logvolume01</title>
<polygon fill="none" stroke="black" points="498.5,-210.096 495.5,-214.096 474.5,-214.096 471.5,-210.096 410.5,-210.096 410.5,-174.096 498.5,-174.096 498.5,-210.096"/>
<text text-anchor="middle" x="454.5" y="-188.396" font-family="Times New Roman,serif" font-size="14.00">logvolume01</text>
</g>
</g>
</svg>
