<?xml version="1.0" encoding="UTF-8" standalone="no"?>
<!DOCTYPE svg PUBLIC "-//W3C//DTD SVG 1.1//EN"
 "http://www.w3.org/Graphics/SVG/1.1/DTD/svg11.dtd">
<!-- Generated by graphviz version 2.38.0 (20140413.2041)
 -->
<!-- Title: docker_compose Pages: 1 -->
<svg width="248pt" height="176pt"
 viewBox="0.00 0.00 248.00 176.19" xmlns="http://www.w3.org/2000/svg" xmlns:xlink="http://www.w3.org/1999/xlink">
<g id="graph0" class="graph" transform="scale(1 1) rotate(0) translate(4 172.191)">
<title>docker_compose</title>
<polygon fill="white" stroke="none" points="-4,4 -4,-172.191 244,-172.191 244,4 -4,4"/>
<!-- . -->
<g id="node1" class="node"><title>.</title>
<polygon fill="none" stroke="black" points="54,-138.096 51,-142.096 30,-142.096 27,-138.096 0,-138.096 0,-102.096 54,-102.096 54,-138.096"/>
<text text-anchor="middle" x="27" y="-116.396" font-family="Times New Roman,serif" font-size="14.00">.</text>
</g>
<!-- web -->
<g id="node2" class="node"><title>web</title>
<polygon fill="none" stroke="black" points="59,-36 5,-36 5,-32 1,-32 1,-28 5,-28 5,-8 1,-8 1,-4 5,-4 5,-0 59,-0 59,-36"/>
<polyline fill="none" stroke="black" points="5,-32 9,-32 9,-28 5,-28 "/>
<polyline fill="none" stroke="black" points="5,-8 9,-8 9,-4 5,-4 "/>
<text text-anchor="middle" x="32" y="-14.3" font-family="Times New Roman,serif" font-size="14.00">web</text>
</g>
<!-- .&#45;&gt;web -->
<g id="edge1" class="edge"><title>.&#45;&gt;web</title>
<path fill="none" stroke="black" d="M27.8709,-101.66C28.6309,-86.4462 29.7467,-64.1101 30.6268,-46.4907"/>
<polygon fill="black" stroke="black" points="34.1357,-46.3977 31.139,-36.2355 27.1444,-46.0484 34.1357,-46.3977"/>
</g>
<!-- back -->
<g id="node4" class="node"><title>back</title>
<polygon fill="none" stroke="black" points="141,-36 87,-36 87,-32 83,-32 83,-28 87,-28 87,-8 83,-8 83,-4 87,-4 87,-0 141,-0 141,-36"/>
<polyline fill="none" stroke="black" points="87,-32 91,-32 91,-28 87,-28 "/>
<polyline fill="none" stroke="black" points="87,-8 91,-8 91,-4 87,-4 "/>
<text text-anchor="middle" x="114" y="-14.3" font-family="Times New Roman,serif" font-size="14.00">back</text>
</g>
<!-- .&#45;&gt;back -->
<g id="edge3" class="edge"><title>.&#45;&gt;back</title>
<path fill="none" stroke="black" d="M39.5422,-101.724C46.262,-92.6691 54.8214,-81.5265 63,-72 71.2348,-62.408 80.7276,-52.3086 89.2739,-43.5288"/>
<polygon fill="black" stroke="black" points="91.9671,-45.7819 96.4852,-36.1987 86.9771,-40.8727 91.9671,-45.7819"/>
</g>
<!-- 5000:5000 -->
<g id="node3" class="node"><title>5000:5000</title>
<ellipse fill="none" stroke="black" cx="120" cy="-120.096" rx="48.1917" ry="48.1917"/>
<text text-anchor="middle" x="120" y="-116.396" font-family="Times New Roman,serif" font-size="14.00">5000:5000</text>
</g>
<!-- 5000:5000&#45;&gt;web -->
<g id="edge2" class="edge"><title>5000:5000&#45;&gt;web</title>
<path fill="none" stroke="black" d="M88.7267,-83.5239C77.247,-70.4662 64.5026,-55.9701 54.0062,-44.031"/>
<polygon fill="black" stroke="black" points="56.3732,-41.4224 47.1418,-36.2231 51.116,-46.0443 56.3732,-41.4224"/>
</g>
<!-- 5000:5000&#45;&gt;back -->
<g id="edge4" class="edge"><title>5000:5000&#45;&gt;back</title>
<path fill="none" stroke="black" d="M117.176,-71.9789C116.649,-63.194 116.115,-54.2882 115.639,-46.3493"/>
<polygon fill="black" stroke="black" points="119.125,-45.9975 115.033,-36.2249 112.137,-46.4164 119.125,-45.9975"/>
</g>
<!-- redis -->
<g id="node5" class="node"><title>redis</title>
<polygon fill="none" stroke="black" points="240,-138.096 186,-138.096 186,-134.096 182,-134.096 182,-130.096 186,-130.096 186,-110.096 182,-110.096 182,-106.096 186,-106.096 186,-102.096 240,-102.096 240,-138.096"/>
<polyline fill="none" stroke="black" points="186,-134.096 190,-134.096 190,-130.096 186,-130.096 "/>
<polyline fill="none" stroke="black" points="186,-110.096 190,-110.096 190,-106.096 186,-106.096 "/>
<text text-anchor="middle" x="213" y="-116.396" font-family="Times New Roman,serif" font-size="14.00">redis</text>
</g>
</g>
</svg>
