<?xml version="1.0" encoding="UTF-8" standalone="no"?>
<!DOCTYPE svg PUBLIC "-//W3C//DTD SVG 1.1//EN"
 "http://www.w3.org/Graphics/SVG/1.1/DTD/svg11.dtd">
<!-- Generated by graphviz version 2.38.0 (20140413.2041)
 -->
<!-- Title: docker_compose Pages: 1 -->
<svg width="579pt" height="261pt"
 viewBox="0.00 0.00 579.00 261.19" xmlns="http://www.w3.org/2000/svg" xmlns:xlink="http://www.w3.org/1999/xlink">
<g id="graph0" class="graph" transform="scale(1 1) rotate(0) translate(4 257.19)">
<title>docker_compose</title>
<polygon fill="white" stroke="none" points="-4,4 -4,-257.19 575,-257.19 575,4 -4,4"/>
<!-- . -->
<g id="node1" class="node"><title>.</title>
<polygon fill="none" stroke="black" points="326.5,-216.595 323.5,-220.595 302.5,-220.595 299.5,-216.595 272.5,-216.595 272.5,-180.595 326.5,-180.595 326.5,-216.595"/>
<text text-anchor="middle" x="299.5" y="-194.895" font-family="Times,serif" font-size="14.00">.</text>
</g>
<!-- web -->
<g id="node2" class="node"><title>web</title>
<polygon fill="none" stroke="black" points="225.5,-108 171.5,-108 171.5,-104 167.5,-104 167.5,-100 171.5,-100 171.5,-80 167.5,-80 167.5,-76 171.5,-76 171.5,-72 225.5,-72 225.5,-108"/>
<polyline fill="none" stroke="black" points="171.5,-104 175.5,-104 175.5,-100 171.5,-100 "/>
<polyline fill="none" stroke="black" points="171.5,-80 175.5,-80 175.5,-76 171.5,-76 "/>
<text text-anchor="middle" x="198.5" y="-86.3" font-family="Times,serif" font-size="14.00">web</text>
</g>
<!-- .&#45;&gt;web -->
<g id="edge1" class="edge"><title>.&#45;&gt;web</title>
<path fill="none" stroke="black" d="M289.273,-180.292C282.393,-169.332 272.735,-155.171 262.5,-144 252.87,-133.489 241.139,-123.196 230.364,-114.519"/>
<polygon fill="black" stroke="black" points="232.384,-111.655 222.361,-108.221 228.055,-117.156 232.384,-111.655"/>
</g>
<!-- back -->
<g id="node7" class="node"><title>back</title>
<polygon fill="none" stroke="black" points="297.5,-108 243.5,-108 243.5,-104 239.5,-104 239.5,-100 243.5,-100 243.5,-80 239.5,-80 239.5,-76 243.5,-76 243.5,-72 297.5,-72 297.5,-108"/>
<polyline fill="none" stroke="black" points="243.5,-104 247.5,-104 247.5,-100 243.5,-100 "/>
<polyline fill="none" stroke="black" points="243.5,-80 247.5,-80 247.5,-76 243.5,-76 "/>
<text text-anchor="middle" x="270.5" y="-86.3" font-family="Times,serif" font-size="14.00">back</text>
</g>
<!-- .&#45;&gt;back -->
<g id="edge6" class="edge"><title>.&#45;&gt;back</title>
<path fill="none" stroke="black" d="M294.841,-180.469C290.253,-163.607 283.178,-137.601 277.836,-117.964"/>
<polygon fill="black" stroke="black" points="281.15,-116.814 275.148,-108.084 274.396,-118.652 281.15,-116.814"/>
</g>
<!-- redis -->
<g id="node6" class="node"><title>redis</title>
<polygon fill="none" stroke="black" points="261.5,-36 207.5,-36 207.5,-32 203.5,-32 203.5,-28 207.5,-28 207.5,-8 203.5,-8 203.5,-4 207.5,-4 207.5,-0 261.5,-0 261.5,-36"/>
<polyline fill="none" stroke="black" points="207.5,-32 211.5,-32 211.5,-28 207.5,-28 "/>
<polyline fill="none" stroke="black" points="207.5,-8 211.5,-8 211.5,-4 207.5,-4 "/>
<text text-anchor="middle" x="234.5" y="-14.3" font-family="Times,serif" font-size="14.00">redis</text>
</g>
<!-- web&#45;&gt;redis -->
<g id="edge5" class="edge"><title>web&#45;&gt;redis</title>
<path fill="none" stroke="black" d="M207.399,-71.6966C211.497,-63.7284 216.449,-54.0995 220.993,-45.2641"/>
<polygon fill="black" stroke="black" points="224.242,-46.598 225.703,-36.1043 218.017,-43.3965 224.242,-46.598"/>
</g>
<!-- 5000:5000 -->
<g id="node3" class="node"><title>5000:5000</title>
<ellipse fill="none" stroke="black" cx="399.5" cy="-198.595" rx="54.6905" ry="54.6905"/>
<text text-anchor="middle" x="399.5" y="-194.895" font-family="Times,serif" font-size="14.00">5000:5000</text>
</g>
<!-- 5000:5000&#45;&gt;web -->
<g id="edge2" class="edge"><title>5000:5000&#45;&gt;web</title>
<path fill="none" stroke="black" d="M359.787,-160.701C352.077,-154.614 343.802,-148.751 335.5,-144 296.724,-121.81 280.594,-125.579 235.346,-108.075"/>
<polygon fill="black" stroke="black" points="236.476,-104.758 225.892,-104.277 233.866,-111.253 236.476,-104.758"/>
</g>
<!-- 5000:5000&#45;&gt;back -->
<g id="edge7" class="edge"><title>5000:5000&#45;&gt;back</title>
<path fill="none" stroke="black" d="M357.909,-162.632C350.462,-156.409 342.762,-150.001 335.5,-144 323.758,-134.297 310.759,-123.674 299.491,-114.503"/>
<polygon fill="black" stroke="black" points="301.601,-111.709 291.634,-108.116 297.185,-117.14 301.601,-111.709"/>
</g>
<!-- .:/code -->
<g id="node4" class="node"><title>.:/code</title>
<polygon fill="none" stroke="black" points="69,-216.595 66,-220.595 45,-220.595 42,-216.595 0,-216.595 0,-180.595 69,-180.595 69,-216.595"/>
<text text-anchor="middle" x="34.5" y="-194.895" font-family="Times,serif" font-size="14.00">.:/code</text>
</g>
<!-- .:/code&#45;&gt;web -->
<g id="edge3" class="edge"><title>.:/code&#45;&gt;web</title>
<path fill="none" stroke="black" d="M45.495,-180.337C53.5185,-168.839 65.2708,-154.05 78.5,-144 103.636,-124.905 136.729,-110.951 161.796,-102.168"/>
<polygon fill="black" stroke="black" points="162.967,-105.467 171.316,-98.9441 160.722,-98.8367 162.967,-105.467"/>
</g>
<!-- .:/code&#45;&gt;back -->
<g id="edge8" class="edge"><title>.:/code&#45;&gt;back</title>
<path fill="none" stroke="black" d="M44.2621,-180.536C52.0231,-168.514 63.9719,-153.01 78.5,-144 136.373,-108.11 164.785,-129.307 233.702,-107.782"/>
<polygon fill="black" stroke="black" points="234.849,-111.089 243.236,-104.615 232.643,-104.446 234.849,-111.089"/>
</g>
<!-- logvolume01:/var/log -->
<g id="node5" class="node"><title>logvolume01:/var/log</title>
<polygon fill="none" stroke="black" points="254,-216.595 251,-220.595 230,-220.595 227,-216.595 87,-216.595 87,-180.595 254,-180.595 254,-216.595"/>
<text text-anchor="middle" x="170.5" y="-194.895" font-family="Times,serif" font-size="14.00">logvolume01:/var/log</text>
</g>
<!-- logvolume01:/var/log&#45;&gt;web -->
<g id="edge4" class="edge"><title>logvolume01:/var/log&#45;&gt;web</title>
<path fill="none" stroke="black" d="M174.999,-180.469C179.428,-163.607 186.259,-137.601 191.417,-117.964"/>
<polygon fill="black" stroke="black" points="194.857,-118.645 194.012,-108.084 188.087,-116.867 194.857,-118.645"/>
</g>
<!-- logvolume01:/var/log&#45;&gt;back -->
<g id="edge9" class="edge"><title>logvolume01:/var/log&#45;&gt;back</title>
<path fill="none" stroke="black" d="M186.567,-180.469C203.041,-162.908 228.821,-135.428 247.464,-115.555"/>
<polygon fill="black" stroke="black" points="250.184,-117.772 254.473,-108.084 245.079,-112.982 250.184,-117.772"/>
</g>
<!-- back&#45;&gt;redis -->
<g id="edge10" class="edge"><title>back&#45;&gt;redis</title>
<path fill="none" stroke="black" d="M261.601,-71.6966C257.503,-63.7284 252.551,-54.0995 248.007,-45.2641"/>
<polygon fill="black" stroke="black" points="250.983,-43.3965 243.297,-36.1043 244.758,-46.598 250.983,-43.3965"/>
</g>
<!-- logvolume01 -->
<g id="node8" class="node"><title>logvolume01</title>
<polygon fill="none" stroke="black" points="571,-216.595 568,-220.595 547,-220.595 544,-216.595 472,-216.595 472,-180.595 571,-180.595 571,-216.595"/>
<text text-anchor="middle" x="521.5" y="-194.895" font-family="Times,serif" font-size="14.00">logvolume01</text>
</g>
</g>
</svg>
