<?xml version="1.0" encoding="UTF-8" standalone="no"?>
<!DOCTYPE svg PUBLIC "-//W3C//DTD SVG 1.1//EN"
 "http://www.w3.org/Graphics/SVG/1.1/DTD/svg11.dtd">
<!-- Generated by graphviz version 2.38.0 (20140413.2041)
 -->
<!-- Title: %3 Pages: 1 -->
<svg width="206pt" height="44pt"
 viewBox="0.00 0.00 206.00 44.00" xmlns="http://www.w3.org/2000/svg" xmlns:xlink="http://www.w3.org/1999/xlink">
<g id="graph0" class="graph" transform="scale(1 1) rotate(0) translate(4 40)">
<title>%3</title>
<polygon fill="white" stroke="none" points="-4,4 -4,-40 202,-40 202,4 -4,4"/>
<!-- back -->
<g id="node1" class="node"><title>back</title>
<polygon fill="none" stroke="black" points="54,-36 0,-36 0,-32 -4,-32 -4,-28 0,-28 0,-8 -4,-8 -4,-4 0,-4 0,-0 54,-0 54,-36"/>
<polyline fill="none" stroke="black" points="0,-32 4,-32 4,-28 0,-28 "/>
<polyline fill="none" stroke="black" points="0,-8 4,-8 4,-4 0,-4 "/>
<text text-anchor="middle" x="27" y="-14.3" font-family="Times New Roman,serif" font-size="14.00">back</text>
</g>
<!-- redis -->
<g id="node2" class="node"><title>redis</title>
<polygon fill="none" stroke="black" points="126,-36 72,-36 72,-32 68,-32 68,-28 72,-28 72,-8 68,-8 68,-4 72,-4 72,-0 126,-0 126,-36"/>
<polyline fill="none" stroke="black" points="72,-32 76,-32 76,-28 72,-28 "/>
<polyline fill="none" stroke="black" points="72,-8 76,-8 76,-4 72,-4 "/>
<text text-anchor="middle" x="99" y="-14.3" font-family="Times New Roman,serif" font-size="14.00">redis</text>
</g>
<!-- web -->
<g id="node3" class="node"><title>web</title>
<polygon fill="none" stroke="black" points="198,-36 144,-36 144,-32 140,-32 140,-28 144,-28 144,-8 140,-8 140,-4 144,-4 144,-0 198,-0 198,-36"/>
<polyline fill="none" stroke="black" points="144,-32 148,-32 148,-28 144,-28 "/>
<polyline fill="none" stroke="black" points="144,-8 148,-8 148,-4 144,-4 "/>
<text text-anchor="middle" x="171" y="-14.3" font-family="Times New Roman,serif" font-size="14.00">web</text>
</g>
</g>
</svg>
