<?xml version="1.0" encoding="UTF-8" standalone="no"?>
<!DOCTYPE svg PUBLIC "-//W3C//DTD SVG 1.1//EN"
 "http://www.w3.org/Graphics/SVG/1.1/DTD/svg11.dtd">
<!-- Generated by graphviz version 2.38.0 (20140413.2041)
 -->
<!-- Title: docker_compose Pages: 1 -->
<svg width="172pt" height="137pt"
 viewBox="0.00 0.00 172.00 137.19" xmlns="http://www.w3.org/2000/svg" xmlns:xlink="http://www.w3.org/1999/xlink">
<g id="graph0" class="graph" transform="scale(1 1) rotate(0) translate(4 133.195)">
<title>docker_compose</title>
<polygon fill="white" stroke="none" points="-4,4 -4,-133.195 168,-133.195 168,4 -4,4"/>
<!-- 5000 -->
<g id="node1" class="node"><title>5000</title>
<ellipse fill="none" stroke="black" cx="63" cy="-100.597" rx="28.6953" ry="28.6953"/>
<text text-anchor="middle" x="63" y="-96.8975" font-family="Times New Roman,serif" font-size="14.00">5000</text>
</g>
<!-- web -->
<g id="node2" class="node"><title>web</title>
<polygon fill="none" stroke="black" points="54,-36 0,-36 0,-32 -4,-32 -4,-28 0,-28 0,-8 -4,-8 -4,-4 0,-4 0,-0 54,-0 54,-36"/>
<polyline fill="none" stroke="black" points="0,-32 4,-32 4,-28 0,-28 "/>
<polyline fill="none" stroke="black" points="0,-8 4,-8 4,-4 0,-4 "/>
<text text-anchor="middle" x="27" y="-14.3" font-family="Times New Roman,serif" font-size="14.00">web</text>
</g>
<!-- 5000&#45;&gt;web -->
<g id="edge1" class="edge"><title>5000:5000&#45;&gt;web</title>
<path fill="none" stroke="black" d="M51.6094,-74.0959C47.5552,-65.0193 42.9815,-54.7796 38.8867,-45.6122"/>
<polygon fill="black" stroke="black" points="41.9528,-43.8945 34.6787,-36.1913 35.5614,-46.7493 41.9528,-43.8945"/>
</g>
<!-- back -->
<g id="node3" class="node"><title>back</title>
<polygon fill="none" stroke="black" points="126,-36 72,-36 72,-32 68,-32 68,-28 72,-28 72,-8 68,-8 68,-4 72,-4 72,-0 126,-0 126,-36"/>
<polyline fill="none" stroke="black" points="72,-32 76,-32 76,-28 72,-28 "/>
<polyline fill="none" stroke="black" points="72,-8 76,-8 76,-4 72,-4 "/>
<text text-anchor="middle" x="99" y="-14.3" font-family="Times New Roman,serif" font-size="14.00">back</text>
</g>
<!-- 5000&#45;&gt;back -->
<g id="edge2" class="edge"><title>5000:5000&#45;&gt;back</title>
<path fill="none" stroke="black" d="M74.3906,-74.0959C78.4448,-65.0193 83.0185,-54.7796 87.1133,-45.6122"/>
<polygon fill="black" stroke="black" points="90.4386,-46.7493 91.3213,-36.1913 84.0472,-43.8945 90.4386,-46.7493"/>
</g>
<!-- redis -->
<g id="node4" class="node"><title>redis</title>
<polygon fill="none" stroke="black" points="164,-118.597 110,-118.597 110,-114.597 106,-114.597 106,-110.597 110,-110.597 110,-90.5975 106,-90.5975 106,-86.5975 110,-86.5975 110,-82.5975 164,-82.5975 164,-118.597"/>
<polyline fill="none" stroke="black" points="110,-114.597 114,-114.597 114,-110.597 110,-110.597 "/>
<polyline fill="none" stroke="black" points="110,-90.5975 114,-90.5975 114,-86.5975 110,-86.5975 "/>
<text text-anchor="middle" x="137" y="-96.8975" font-family="Times New Roman,serif" font-size="14.00">redis</text>
</g>
</g>
</svg>
